<?xml version="1.0" standalone="no"?>
<!DOCTYPE svg PUBLIC "-//W3C//DTD SVG 20010904//EN"
 "http://www.w3.org/TR/2001/REC-SVG-20010904/DTD/svg10.dtd">
<svg version="1.0" xmlns="http://www.w3.org/2000/svg"
 width="200.000000pt" height="200.000000pt" viewBox="0 0 200.000000 200.000000"
 preserveAspectRatio="xMidYMid meet">
<metadata>
Created by potrace 1.16, written by Peter Selinger 2001-2019
</metadata>
<g transform="translate(0.000000,200.000000) scale(0.100000,-0.100000)"
fill="#000000" stroke="none">
<path d="M554 1369 c-22 -5 -107 -47 -188 -93 -143 -81 -149 -84 -230 -91 -45
-3 -88 -10 -96 -15 -9 -5 -18 -50 -26 -132 -18 -168 -17 -207 5 -248 16 -31
24 -36 72 -42 30 -4 66 -10 82 -13 21 -3 27 -1 27 13 0 76 58 153 128 171 101
28 195 -42 217 -162 l7 -37 473 0 473 0 7 50 c17 126 131 193 239 141 52 -26
83 -70 94 -133 l8 -43 57 1 c88 2 100 17 95 124 -4 108 -26 156 -86 189 -51
27 -153 55 -267 71 -71 10 -96 20 -220 90 -217 121 -237 129 -343 146 -115 19
-469 27 -528 13z m271 -68 c28 -6 30 -10 41 -81 7 -41 13 -87 13 -102 1 -27
-1 -28 -52 -28 -30 0 -109 3 -175 7 l-122 6 0 56 c0 31 4 61 8 67 9 15 109 65
147 75 37 9 100 9 140 0z m265 -28 c134 -37 240 -118 240 -184 0 -10 -160 -12
-277 -2 -79 6 -82 7 -92 35 -6 16 -13 63 -17 104 l-7 76 49 -7 c27 -4 74 -13
104 -22z"/>
<path d="M303 886 c-47 -21 -73 -70 -73 -135 0 -49 3 -57 39 -92 35 -36 43
-39 92 -39 68 0 114 27 136 77 38 93 -18 192 -114 200 -28 2 -61 -3 -80 -11z"/>
<path d="M1601 883 c-70 -35 -94 -136 -48 -204 28 -42 60 -59 115 -59 85 0
142 56 142 139 0 108 -109 173 -209 124z"/>
</g>
</svg>
